<?xml version="1.0" encoding="UTF-8"?>
<!-- PLACEHOLDER: replace with Apple's official "Download on the App Store" badge
     from https://developer.apple.com/app-store/marketing/guidelines/ before launch.
     Do not recolour or alter the official artwork. -->
<svg xmlns="http://www.w3.org/2000/svg" width="160" height="54" viewBox="0 0 160 54" role="img" aria-label="Download on the App Store">
  <rect x="0.75" y="0.75" width="158.5" height="52.5" rx="9.5" fill="#000000" stroke="#A6A6A6" stroke-width="1.5"/>
  <g fill="#FFFFFF" transform="translate(16,12) scale(0.063)">
    <path d="M318.7 268.7c-.2-36.7 16.4-64.4 50-84.8-18.8-26.9-47.2-41.7-84.7-44.6-35.5-2.8-74.3 20.7-88.5 20.7-15 0-49.4-19.7-76.4-19.7C72.7 141.9 25 184.5 25 271.5c0 25.7 4.7 52.3 14.1 79.7 12.6 36 58 124.2 105.4 122.7 24.8-.6 42.3-17.6 74.5-17.6 31.2 0 47.4 17.6 74.5 17.6 47.8-.7 88.9-80.6 100.9-116.7-64.1-30.2-60.7-88.5-60.7-90.5zm-56.6-163.3c27.3-32.4 24.8-61.9 24-72.5-24.1 1.4-52 16.4-67.9 34.9-17.5 19.8-27.8 44.3-25.6 71.9 26.1 2 49.9-11.4 69.5-34.3z"/>
  </g>
  <text x="46" y="22" fill="#FFFFFF" font-family="-apple-system, BlinkMacSystemFont, 'Helvetica Neue', Helvetica, Arial, sans-serif" font-size="8.5" letter-spacing="0.2">Download on the</text>
  <text x="45" y="41" fill="#FFFFFF" font-family="-apple-system, BlinkMacSystemFont, 'Helvetica Neue', Helvetica, Arial, sans-serif" font-size="19" font-weight="600" letter-spacing="-0.3">App Store</text>
</svg>
